<svg id="Layer_1" data-name="Layer 1" xmlns="http://www.w3.org/2000/svg" xmlns:xlink="http://www.w3.org/1999/xlink" viewBox="0 0 259.2 72"><defs><style>.cls-1,.cls-4,.cls-6{fill:#016737;}.cls-1,.cls-2{clip-rule:evenodd;}.cls-2,.cls-7{fill:#7a903e;}.cls-3{fill:#585858;}.cls-4,.cls-7{fill-rule:evenodd;}.cls-5{clip-path:url(#clip-path);}.cls-8{clip-path:url(#clip-path-2);}.cls-9{fill:#95c11f;}</style><clipPath id="clip-path"><path id="SVGID" class="cls-1" d="M11,40.19A22.77,22.77,0,0,1,39.89,59.47a28.45,28.45,0,0,0,9.67-3.63c9.33-5.39,12.11-16.09,15.9-24.41a25.26,25.26,0,0,1-28.84,8.1Q19,34.49,11,40.19"/></clipPath><clipPath id="clip-path-2"><path id="SVGID-2" data-name="SVGID" class="cls-2" d="M56,15.76A36.44,36.44,0,0,0,36.84,36.17a25.25,25.25,0,0,0,28.41-9.51c3.13-7.87,7.24-13.74,18.65-11.76A36.46,36.46,0,0,0,56,15.76"/></clipPath></defs><path class="cls-3" d="M78.52,34.82v1.72H90.15v3.3H78.52v3.48A1.69,1.69,0,0,0,80.18,45h13.2v3.3H80.18a4.93,4.93,0,0,1-4.86-5v-8.5a4.93,4.93,0,0,1,4.86-5h13.2v3.3H80.18A1.69,1.69,0,0,0,78.52,34.82Z"/><path class="cls-3" d="M116.61,29.86V48.34l-3.22-2.54-11.63-9.16v11.7H98.53V29.91l3.23,2.53,11.63,9.17V29.83Z"/><path class="cls-3" d="M139.16,29.83l-1.66,3.3-7.56,15.18-7.57-15.18-1.65-3.3h3.61l1.65,3.3,4,7.92,3.95-7.92,1.65-3.3Z"/><path class="cls-3" d="M160.77,39.07a9,9,0,1,1-9-9.24A9.15,9.15,0,0,1,160.77,39.07Zm-3.23,0A5.81,5.81,0,1,0,151.73,45,5.89,5.89,0,0,0,157.54,39.07Z"/><path class="cls-3" d="M180.21,45v3.3H171a5.46,5.46,0,0,1-2.53-.61,5.94,5.94,0,0,1-3.2-5.28V29.86h3.23V42.77A2.6,2.6,0,0,0,170.73,45Z"/><path class="cls-3" d="M188.6,34.82v1.72h11.62v3.3H188.6v3.48A1.69,1.69,0,0,0,190.25,45h13.2v3.3h-13.2a4.92,4.92,0,0,1-4.85-5v-8.5a4.93,4.93,0,0,1,4.85-5h13.2v3.3h-13.2A1.69,1.69,0,0,0,188.6,34.82Z"/><path class="cls-3" d="M226,48.31H222.4L220.75,45l-3.95-7.92-4,7.92-1.66,3.3h-3.61l1.65-3.3,7.57-15.18L224.37,45Z"/><path class="cls-3" d="M239.16,29.86a9.13,9.13,0,0,1,9,9.21,9.26,9.26,0,0,1-2.15,6c-.15.18-.33.37-.51.55a8.78,8.78,0,0,1-6.36,2.72h-9V29.83h9ZM245,39.1a5.88,5.88,0,0,0-5.81-5.94h-5.81V45h5.81A5.89,5.89,0,0,0,245,39.1Z"/><path id="SVGID-3" data-name="SVGID" class="cls-4" d="M11,40.19A22.77,22.77,0,0,1,39.89,59.47a28.45,28.45,0,0,0,9.67-3.63c9.33-5.39,12.11-16.09,15.9-24.41a25.26,25.26,0,0,1-28.84,8.1Q19,34.49,11,40.19"/><g class="cls-5"><rect class="cls-6" x="11" y="31.43" width="54.46" height="28.05"/></g><path id="SVGID-4" data-name="SVGID" class="cls-7" d="M56,15.76A36.44,36.44,0,0,0,36.84,36.17a25.25,25.25,0,0,0,28.41-9.51c3.13-7.87,7.24-13.74,18.65-11.76A36.46,36.46,0,0,0,56,15.76"/><g class="cls-8"><rect class="cls-9" x="36.34" y="12" width="48.05" height="26.91" transform="translate(-1.17 2.99) rotate(-2.81)"/></g></svg>