<svg id="Layer_1" data-name="Layer 1" xmlns="http://www.w3.org/2000/svg" xmlns:xlink="http://www.w3.org/1999/xlink" viewBox="0 0 64 64"><defs><clipPath id="clip-path"><path id="SVGID" d="M2.41,35.4A18.49,18.49,0,0,1,25.86,51.06a23.39,23.39,0,0,0,7.85-3C41.29,43.74,43.54,35,46.62,28.29a20.51,20.51,0,0,1-23.41,6.58q-14.3-4.11-20.8.53" style="fill:#016737;clip-rule:evenodd"/></clipPath><clipPath id="clip-path-2"><path id="SVGID-2" data-name="SVGID" d="M38.9,15.57A29.6,29.6,0,0,0,23.38,32.14a20.52,20.52,0,0,0,23.07-7.72C49,18,52.33,13.27,61.59,14.87a29.61,29.61,0,0,0-22.69.7" style="fill:#7a903e;clip-rule:evenodd"/></clipPath></defs><path id="SVGID-3" data-name="SVGID" d="M2.41,35.4A18.49,18.49,0,0,1,25.86,51.06a23.39,23.39,0,0,0,7.85-3C41.29,43.74,43.54,35,46.62,28.29a20.51,20.51,0,0,1-23.41,6.58q-14.3-4.11-20.8.53" style="fill:#016737;fill-rule:evenodd"/><g style="clip-path:url(#clip-path)"><rect x="2.41" y="28.29" width="44.22" height="22.77" style="fill:#016737"/></g><path id="SVGID-4" data-name="SVGID" d="M38.9,15.57A29.6,29.6,0,0,0,23.38,32.14a20.52,20.52,0,0,0,23.07-7.72C49,18,52.33,13.27,61.59,14.87a29.61,29.61,0,0,0-22.69.7" style="fill:#7a903e;fill-rule:evenodd"/><g style="clip-path:url(#clip-path-2)"><rect x="22.98" y="12.52" width="39.01" height="21.85" transform="translate(-1.1 2.11) rotate(-2.81)" style="fill:#95c11f"/></g></svg>